<?xml version="1.0" encoding="UTF-8" standalone="no"?>
<svg
   id="visual"
   viewBox="0 0 519.77856 486.56628"
   width="519.77856"
   height="486.56628"
   version="1.1"
   sodipodi:docname="circle-blob.svg"
   inkscape:version="1.1.1 (3bf5ae0d25, 2021-09-20)"
   xmlns:inkscape="http://www.inkscape.org/namespaces/inkscape"
   xmlns:sodipodi="http://sodipodi.sourceforge.net/DTD/sodipodi-0.dtd"
   xmlns="http://www.w3.org/2000/svg"
   xmlns:svg="http://www.w3.org/2000/svg">
  <defs
     id="defs11" />
  <sodipodi:namedview
     id="namedview9"
     pagecolor="#ffffff"
     bordercolor="#999999"
     borderopacity="1"
     inkscape:pageshadow="0"
     inkscape:pageopacity="0"
     inkscape:pagecheckerboard="0"
     showgrid="false"
     inkscape:zoom="0.84734963"
     inkscape:cx="208.29655"
     inkscape:cy="369.97715"
     inkscape:window-width="1914"
     inkscape:window-height="1025"
     inkscape:window-x="0"
     inkscape:window-y="22"
     inkscape:window-maximized="1"
     inkscape:current-layer="visual" />
  <rect
     x="-190.11072"
     y="-56.716862"
     width="900"
     height="600"
     fill="#ffffff"
     id="rect2" />
  <g
     transform="translate(198.81326,231.03478)"
     id="g6">
    <path
       d="m 146.2,-231 c 40.8,1.4 69.9,45.4 97.9,91.1 28,45.6 54.9,92.7 68.2,147.6 13.3,54.8 12.9,117.3 -12.6,167.2 -25.5,50 -76.1,87.4 -130.2,79.6 -54.2,-7.9 -111.8,-60.9 -167.2,-64.8 -55.5,-3.9 -108.6,41.4 -144.1,38.4 -35.5,-2.9 -53.4,-54 -56.5,-100.1 -3.1,-46 8.6,-87 14.8,-124.4 6.2,-37.4 7,-71.3 23.5,-93.9 16.6,-22.7 49.1,-34.2 78.4,-42.3 29.3,-8 55.4,-12.7 94.8,-35.7 39.5,-22.9 92.1,-64.1 133,-62.7"
       fill="#0066ff"
       id="path4" />
  </g>
</svg>
