<?xml version="1.0" encoding="UTF-8" standalone="no"?>
<svg
   id="visual"
   viewBox="0 0 900 227"
   width="900"
   height="227"
   version="1.1"
   sodipodi:docname="layered-waves.svg"
   inkscape:version="1.1.1 (3bf5ae0d25, 2021-09-20)"
   xmlns:inkscape="http://www.inkscape.org/namespaces/inkscape"
   xmlns:sodipodi="http://sodipodi.sourceforge.net/DTD/sodipodi-0.dtd"
   xmlns="http://www.w3.org/2000/svg"
   xmlns:svg="http://www.w3.org/2000/svg">
  <defs
     id="defs17" />
  <sodipodi:namedview
     id="namedview15"
     pagecolor="#ffffff"
     bordercolor="#999999"
     borderopacity="1"
     inkscape:pageshadow="0"
     inkscape:pageopacity="0"
     inkscape:pagecheckerboard="0"
     showgrid="false"
     inkscape:zoom="1.1983333"
     inkscape:cx="450.20862"
     inkscape:cy="193.18498"
     inkscape:window-width="1914"
     inkscape:window-height="1025"
     inkscape:window-x="0"
     inkscape:window-y="22"
     inkscape:window-maximized="1"
     inkscape:current-layer="visual" />
  <rect
     x="0"
     y="-374"
     width="900"
     height="600"
     fill="#ffffff"
     id="rect2" />
  <g
     id="g839">
    <path
       d="M 0,0 21.5,4 C 43,8 86,16 128.8,23.5 171.7,31 214.3,38 257.2,45.7 300,53.3 343,61.7 385.8,64.8 428.7,68 471.3,66 514.2,53.8 557,41.7 600,19.3 642.8,19.8 685.7,20.3 728.3,43.7 771.2,50.3 814,57 857,47 878.5,42 L 900,37 v 190 h -21.5 c -21.5,0 -64.5,0 -107.3,0 -42.9,0 -85.5,0 -128.4,0 -42.8,0 -85.8,0 -128.6,0 -42.9,0 -85.5,0 -128.4,0 -42.8,0 -85.8,0 -128.6,0 -42.9,0 -85.5,0 -128.4,0 C 86,227 43,227 21.5,227 H 0 Z"
       fill="#0066ff"
       id="path4" />
    <path
       d="M 0,86 21.5,76.2 C 43,66.3 86,46.7 128.8,42.8 171.7,39 214.3,51 257.2,57.5 300,64 343,65 385.8,64 428.7,63 471.3,60 514.2,65.8 557,71.7 600,86.3 642.8,87 685.7,87.7 728.3,74.3 771.2,62.2 814,50 857,39 878.5,33.5 L 900,28 v 199 h -21.5 c -21.5,0 -64.5,0 -107.3,0 -42.9,0 -85.5,0 -128.4,0 -42.8,0 -85.8,0 -128.6,0 -42.9,0 -85.5,0 -128.4,0 -42.8,0 -85.8,0 -128.6,0 -42.9,0 -85.5,0 -128.4,0 C 86,227 43,227 21.5,227 H 0 Z"
       fill="#007aff"
       id="path6" />
    <path
       d="m 0,124 21.5,-9.7 C 43,104.7 86,85.3 128.8,75.2 171.7,65 214.3,64 257.2,64 c 42.8,0 85.8,1 128.6,6 42.9,5 85.5,14 128.4,19 42.8,5 85.8,6 128.6,13.2 42.9,7.1 85.5,20.5 128.4,26.6 42.8,6.2 85.8,5.2 107.3,4.7 L 900,133 v 94 h -21.5 c -21.5,0 -64.5,0 -107.3,0 -42.9,0 -85.5,0 -128.4,0 -42.8,0 -85.8,0 -128.6,0 -42.9,0 -85.5,0 -128.4,0 -42.8,0 -85.8,0 -128.6,0 -42.9,0 -85.5,0 -128.4,0 C 86,227 43,227 21.5,227 H 0 Z"
       fill="#008bfc"
       id="path8" />
    <path
       d="m 0,133 21.5,-3.5 C 43,126 86,119 128.8,123.3 c 42.9,4.4 85.5,20 128.4,21.2 42.8,1.2 85.8,-12.2 128.6,-18.8 42.9,-6.7 85.5,-6.7 128.4,-1.7 42.8,5 85.8,15 128.6,19.8 42.9,4.9 85.5,4.5 128.4,-1.5 42.8,-6 85.8,-17.6 107.3,-23.5 L 900,113 v 114 h -21.5 c -21.5,0 -64.5,0 -107.3,0 -42.9,0 -85.5,0 -128.4,0 -42.8,0 -85.8,0 -128.6,0 -42.9,0 -85.5,0 -128.4,0 -42.8,0 -85.8,0 -128.6,0 -42.9,0 -85.5,0 -128.4,0 C 86,227 43,227 21.5,227 H 0 Z"
       fill="#0099f4"
       id="path10" />
    <path
       d="m 0,152 21.5,4 c 21.5,4 64.5,12 107.3,18.5 42.9,6.5 85.5,11.5 128.4,8.8 42.8,-2.6 85.8,-13 128.6,-12.8 42.9,0.2 85.5,10.8 128.4,12.8 42.8,2 85.8,-4.6 128.6,-7.8 42.9,-3.2 85.5,-2.8 128.4,0 42.8,2.8 85.8,8.2 107.3,10.8 L 900,189 v 38 h -21.5 c -21.5,0 -64.5,0 -107.3,0 -42.9,0 -85.5,0 -128.4,0 -42.8,0 -85.8,0 -128.6,0 -42.9,0 -85.5,0 -128.4,0 -42.8,0 -85.8,0 -128.6,0 -42.9,0 -85.5,0 -128.4,0 C 86,227 43,227 21.5,227 H 0 Z"
       fill="#0ea5e9"
       id="path12" />
  </g>
</svg>
