<?xml version="1.0" encoding="UTF-8" standalone="no"?>
<svg
   id="visual"
   viewBox="0 0 900 250"
   width="900"
   height="250"
   version="1.1"
   sodipodi:docname="layered-steps.svg"
   inkscape:version="1.1.1 (3bf5ae0d25, 2021-09-20)"
   xmlns:inkscape="http://www.inkscape.org/namespaces/inkscape"
   xmlns:sodipodi="http://sodipodi.sourceforge.net/DTD/sodipodi-0.dtd"
   xmlns="http://www.w3.org/2000/svg"
   xmlns:svg="http://www.w3.org/2000/svg">
  <defs
     id="defs13" />
  <sodipodi:namedview
     id="namedview11"
     pagecolor="#ffffff"
     bordercolor="#999999"
     borderopacity="1"
     inkscape:pageshadow="0"
     inkscape:pageopacity="0"
     inkscape:pagecheckerboard="0"
     showgrid="false"
     inkscape:zoom="1.1983333"
     inkscape:cx="450.20862"
     inkscape:cy="15.438108"
     inkscape:window-width="1914"
     inkscape:window-height="1025"
     inkscape:window-x="0"
     inkscape:window-y="22"
     inkscape:window-maximized="1"
     inkscape:current-layer="visual" />
  <path
     d="M 0,14 H 100 V 66 H 200 V 23 H 300 V 69 H 400 V 9 H 500 V 0 H 600 V 3 H 700 V 48 H 800 V 14 h 100 v 51 185 0 H 800 v 0 H 700 v 0 H 600 v 0 H 500 v 0 H 400 v 0 H 300 v 0 H 200 v 0 H 100 v 0 H 0 Z"
     fill="#0ea5e9"
     id="path4" />
  <path
     d="M 0,112 H 100 V 94 H 200 V 71 h 100 v 37 h 100 v 13 H 500 V 95 h 100 v 32 H 700 V 77 h 100 v -5 h 100 v 3 175 0 H 800 v 0 H 700 v 0 H 600 v 0 H 500 v 0 H 400 v 0 H 300 v 0 H 200 v 0 H 100 v 0 H 0 Z"
     fill="#008afa"
     id="path6" />
  <path
     d="m 0,181 h 100 v 1 h 100 v -25 h 100 v 9 h 100 v -18 h 100 v -16 h 100 v 22 h 100 v 4 h 100 v 18 h 100 v -16 90 0 H 800 v 0 H 700 v 0 H 600 v 0 H 500 v 0 H 400 v 0 H 300 v 0 H 200 v 0 H 100 v 0 H 0 Z"
     fill="#0866fd"
     id="path8" />
</svg>
