<?xml version="1.0" encoding="UTF-8" standalone="no"?>
<svg
   id="visual"
   viewBox="0 0 900 318"
   width="900"
   height="318"
   version="1.1"
   sodipodi:docname="Wave.svg"
   inkscape:version="1.1.1 (3bf5ae0d25, 2021-09-20)"
   xmlns:inkscape="http://www.inkscape.org/namespaces/inkscape"
   xmlns:sodipodi="http://sodipodi.sourceforge.net/DTD/sodipodi-0.dtd"
   xmlns="http://www.w3.org/2000/svg"
   xmlns:svg="http://www.w3.org/2000/svg">
  <defs
     id="defs872" />
  <sodipodi:namedview
     id="namedview870"
     pagecolor="#ffffff"
     bordercolor="#999999"
     borderopacity="1"
     inkscape:pageshadow="0"
     inkscape:pageopacity="0"
     inkscape:pagecheckerboard="0"
     showgrid="false"
     inkscape:zoom="1.2233333"
     inkscape:cx="427.92916"
     inkscape:cy="240.32698"
     inkscape:window-width="1914"
     inkscape:window-height="1044"
     inkscape:window-x="0"
     inkscape:window-y="0"
     inkscape:window-maximized="1"
     inkscape:current-layer="visual" />
  <path
     d="m 0,0 25,24.2 c 25,24.1 74.999998,72.5 125,108.1 50,35.7 100,58.7 150,33.9 50,-24.9 100,-97.5 150,-84.9 50,12.7 100,110.7 150,126 50,15.4 100,-52 150,-65.8 50,-13.8 100,25.8 125,45.7 l 25,19.8 v 111 h -25 c -25,0 -75,0 -125,0 -50,0 -100,0 -150,0 -50,0 -100,0 -150,0 -50,0 -100,0 -150,0 -50,0 -100,0 -150,0 -50.000002,0 -100,0 -125,0 H 0 Z"
     fill="#0066ff"
     stroke-linecap="round"
     stroke-linejoin="miter"
     id="path867" />
</svg>
