<svg id="visual" viewBox="0 0 900 600" width="900" height="600" xmlns="http://www.w3.org/2000/svg" xmlns:xlink="http://www.w3.org/1999/xlink" version="1.1"><rect x="0" y="0" width="900" height="600" fill="#002233"></rect><path d="M0 283L25 307.2C50 331.3 100 379.7 150 415.3C200 451 250 474 300 449.2C350 424.3 400 351.7 450 364.3C500 377 550 475 600 490.3C650 505.7 700 438.3 750 424.5C800 410.7 850 450.3 875 470.2L900 490L900 601L875 601C850 601 800 601 750 601C700 601 650 601 600 601C550 601 500 601 450 601C400 601 350 601 300 601C250 601 200 601 150 601C100 601 50 601 25 601L0 601Z" fill="#0066FF" stroke-linecap="round" stroke-linejoin="miter"></path></svg>